IKResults
version=1
nRows=5
nColumns=40
inDegrees=yes

Units are S.I. units (second, meters, Newtons, ...)
Angles are in degrees.

endheader
time	pelvis_tilt	pelvis_list	pelvis_rotation	pelvis_tx	pelvis_ty	pelvis_tz	hip_flexion_r	hip_adduction_r	hip_rotation_r	knee_angle_r	knee_angle_r_beta	ankle_angle_r	subtalar_angle_r	mtp_angle_r	hip_flexion_l	hip_adduction_l	hip_rotation_l	knee_angle_l	knee_angle_l_beta	ankle_angle_l	subtalar_angle_l	mtp_angle_l	lumbar_extension	lumbar_bending	lumbar_rotation	arm_flex_r	arm_add_r	arm_rot_r	elbow_flex_r	pro_sup_r	wrist_flex_r	wrist_dev_r	arm_flex_l	arm_add_l	arm_rot_l	elbow_flex_l	pro_sup_l	wrist_flex_l	wrist_dev_l
      0.73000000	     18.12096877	     -3.88404722	     -3.43723414	     -0.32722430	      0.95199574	     -1.03118052	     -2.10610852	      1.92344251	     -5.02921168	    -33.67018605	     -0.58765561	      6.29802552	     -8.05564498	      4.83443956	    -21.86267827	      0.09826178	     20.57311880	    -11.05793222	     -0.19299733	     11.19737823	     -0.67468874	     -5.73670563	    -25.85769432	      0.93324658	     -1.04098486	     -2.42424918	    -11.33857994	      5.49126674	     24.35356962	     89.95437384	      0.00000000	      0.00000000	     12.73061910	      8.47240346	      6.13598635	     27.97747575	     89.95437384	      0.00000000	      0.00000000
      0.74000000	     17.75982568	     -3.80620041	     -3.64224815	     -0.32249758	      0.95113139	     -1.03119254	     -1.09180229	      1.82145607	     -5.59964606	    -32.56909596	     -0.56843796	      6.23943510	     -7.68740156	      4.75818064	    -21.71619086	     -0.07094017	     20.62274378	    -11.19430420	     -0.19537747	     11.38255271	     -0.56086490	     -5.66338249	    -25.55718756	      0.83544663	     -0.98010693	     -2.45915020	    -11.42214534	      5.42363042	     24.35450535	     89.95437384	      0.00000000	      0.00000000	     12.98364018	      8.36629598	      5.96434208	     28.40573950	     89.95437384	      0.00000000	      0.00000000
      0.75000000	     17.89786492	     -4.31126506	     -3.18677501	     -0.31731441	      0.95120974	     -1.03137505	     -1.24350574	      2.43373473	     -6.55837861	    -30.44123121	     -0.53129971	      5.95374230	     -5.96357608	      4.37362446	    -22.14201933	      0.58840406	     20.09156257	    -11.40901948	     -0.19912495	     11.96877107	     -0.08664891	     -5.64915482	    -25.77474692	      1.50383736	     -1.29510696	     -2.36603883	    -11.30418641	      4.74462722	     24.08848495	     89.95437384	      0.00000000	      0.00000000	     13.20326371	      8.43687852	      5.24856030	     28.80571555	     89.95437384	      0.00000000	      0.00000000
      0.76000000	     17.83607493	     -4.43161693	     -2.98842209	     -0.31218347	      0.95075044	     -1.03167729	     -0.92222214	      2.51513442	     -7.66057251	    -28.78054475	     -0.50231527	      5.86677406	     -4.52216676	      3.80708656	    -22.44693194	      0.71411768	     19.74101290	    -11.36254354	     -0.19831380	     12.23827998	      0.19395754	     -5.59732722	    -25.75926081	      1.73538387	     -1.48437954	     -2.42020646	    -11.31770070	      4.31943772	     24.07391564	     89.95437384	      0.00000000	      0.00000000	     13.42400940	      8.43458973	      4.71340209	     29.21279166	     89.95437384	      0.00000000	      0.00000000
      0.77000000	     17.72469292	     -4.55009578	     -2.92564070	     -0.30703722	      0.95026361	     -1.03173952	     -0.56791643	      2.63116057	     -8.52120142	    -27.11844492	     -0.47330615	      5.70815694	     -3.29689232	      3.39596123	    -22.55599637	      0.84053133	     19.47388570	    -11.59248795	     -0.20232708	     12.60071915	      0.53961289	     -5.57818988	    -25.68083521	      1.91594847	     -1.58082865	     -2.37599516	    -11.31562923	      4.11433317	     23.88393484	     89.95437384	      0.00000000	      0.00000000	     13.67537717	      8.40212825	      4.31764280	     29.46304470	     89.95437384	      0.00000000	      0.00000000
